<svg id="Layer_1" data-name="Layer 1" xmlns="http://www.w3.org/2000/svg" viewBox="0 0 100 100"><title>img-place-holder</title><rect width="100" height="100" fill="#eaeaea"/><circle cx="50" cy="50" r="30.95" fill="#ccc"/><path d="M49.87,63.87H49.1c-5.27-.39-8.35-5-8.6-5.14a2.58,2.58,0,0,1,4.24-3h0a7,7,0,0,0,4.62,3c1.93.13,4-.9,6-3.21a2.64,2.64,0,0,1,3.85,3.6h0C56.42,62.2,53.21,63.87,49.87,63.87Z" fill="#fff"/><path d="M30.09,57.19a2.57,2.57,0,0,1-1.54-4.75l20-15.28A2.66,2.66,0,1,1,51.8,41.4h0l-20,15.28A2.83,2.83,0,0,1,30.09,57.19Z" fill="#fff"/><path d="M70.16,57.19a2.25,2.25,0,0,1-1.54-.51l-20-15.28a2.66,2.66,0,0,1,3.21-4.24l20,15.28a2.66,2.66,0,0,1,.51,3.72h0A2.71,2.71,0,0,1,70.16,57.19Z" fill="#fff"/><path d="M35.87,52.83a2.57,2.57,0,0,1-2.57-2.57V41.52a2.57,2.57,0,1,1,5.14,0v8.73A2.57,2.57,0,0,1,35.87,52.83Z" fill="#fff"/></svg>